<?xml version="1.0" encoding="UTF-8" standalone="no"?>
<svg
   version="1.1"
   viewBox="0 0 4000 3441.839"
   id="svg451"
   sodipodi:docname="black-icon.svg"
   inkscape:export-filename="black-icon.svg"
   inkscape:export-xdpi="96"
   inkscape:export-ydpi="96"
   inkscape:version="1.4.2 (ebf0e940, 2025-05-08)"
   xmlns:inkscape="http://www.inkscape.org/namespaces/inkscape"
   xmlns:sodipodi="http://sodipodi.sourceforge.net/DTD/sodipodi-0.dtd"
   xmlns="http://www.w3.org/2000/svg"
   xmlns:svg="http://www.w3.org/2000/svg">
  <defs
     id="defs451">
    <linearGradient
       id="swatch451"
       inkscape:swatch="solid">
      <stop
         style="stop-color:#ffffff;stop-opacity:1;"
         offset="0"
         id="stop451" />
    </linearGradient>
  </defs>
  <sodipodi:namedview
     id="namedview451"
     pagecolor="#ffffff"
     bordercolor="#000000"
     borderopacity="0.25"
     inkscape:showpageshadow="2"
     inkscape:pageopacity="0.0"
     inkscape:pagecheckerboard="0"
     inkscape:deskcolor="#d1d1d1"
     inkscape:zoom="0.208"
     inkscape:cx="1997.5962"
     inkscape:cy="1721.1538"
     inkscape:window-width="1536"
     inkscape:window-height="1271"
     inkscape:window-x="681"
     inkscape:window-y="530"
     inkscape:window-maximized="0"
     inkscape:current-layer="svg451" />
  <!-- Generator: Adobe Illustrator 28.7.7, SVG Export Plug-In . SVG Version: 1.2.0 Build 194)  -->
  <g
     id="g39"
     style="fill:#000000;fill-opacity:1"
     transform="translate(-735.57692,-591.34615)">
    <path
       d="m 2459.262,2329.658 c -5.244,0 -9.495,-4.251 -9.495,-9.495 0,-5.244 4.251,-9.495 9.495,-9.495 h 1106.482 v -79.273 H 2459.262 c -5.244,0 -9.495,-4.251 -9.495,-9.495 0,-5.244 4.251,-9.495 9.495,-9.495 h 1106.482 v -64.091 H 2433.176 c -36.901,0 -66.819,29.916 -66.819,66.822 v 105.129 c 0,36.905 29.919,66.822 66.819,66.822 h 1132.568 v -57.429 z"
       style="fill:#000000;fill-opacity:1"
       id="path36" />
    <path
       d="M 3446.356,2491.648 H 2084.993 c -73.871,0 -133.969,-60.099 -133.969,-133.97 v -179.956 c 0,-73.871 60.098,-133.97 133.969,-133.97 h 1361.363 c 73.871,0 133.97,60.099 133.97,133.97 v 179.956 c 0,73.871 -60.099,133.97 -133.97,133.97 z M 2084.994,2072.919 c -57.788,0 -104.803,47.015 -104.803,104.803 v 179.956 c 0,57.788 47.014,104.803 104.803,104.803 h 1361.363 c 57.788,0 104.803,-47.015 104.803,-104.803 v -179.956 c 0,-57.788 -47.015,-104.803 -104.803,-104.803 z"
       style="fill:#000000;fill-opacity:1"
       id="path37" />
    <path
       d="m 2136.442,2417.94 c -7.723,0 -13.983,-6.26 -13.983,-13.983 v -262.331 c 0,-7.723 6.26,-13.983 13.983,-13.983 7.723,0 13.983,6.26 13.983,13.983 v 262.331 c 0,7.723 -6.26,13.983 -13.983,13.983 z"
       style="fill:#000000;fill-opacity:1"
       id="path38" />
    <path
       d="m 2202.71,2417.94 c -7.723,0 -13.983,-6.26 -13.983,-13.983 v -262.331 c 0,-7.723 6.26,-13.983 13.983,-13.983 7.723,0 13.983,6.26 13.983,13.983 v 262.331 c 0,7.723 -6.26,13.983 -13.983,13.983 z"
       style="fill:#000000;fill-opacity:1"
       id="path39" />
  </g>
</svg>
